<?xml version="1.0" standalone="no"?><!DOCTYPE svg PUBLIC "-//W3C//DTD SVG 1.1//EN" "http://www.w3.org/Graphics/SVG/1.1/DTD/svg11.dtd"><svg height="1024" node-id="1" sillyvg="true" template-height="1024" template-width="1720" version="1.1" viewBox="0 0 1720 1024" width="1720" xmlns="http://www.w3.org/2000/svg" xmlns:xlink="http://www.w3.org/1999/xlink"><defs node-id="48"></defs><path d="M 317.30 123.20 L 1406.00 123.20 L 1409.50 123.40 L 1412.70 124.10 L 1415.80 125.10 L 1418.70 126.60 L 1421.30 128.40 L 1423.70 130.50 L 1425.90 132.90 L 1427.60 135.60 L 1429.10 138.50 L 1430.20 141.60 L 1430.90 144.80 L 1431.10 148.20 L 1431.10 883.10 L 1430.90 886.50 L 1430.20 889.70 L 1429.10 892.80 L 1427.60 895.70 L 1425.90 898.40 L 1423.70 900.80 L 1421.30 902.90 L 1418.70 904.70 L 1415.80 906.20 L 1412.70 907.20 L 1409.50 907.90 L 1406.00 908.10 L 317.30 908.10 L 313.90 907.90 L 310.70 907.20 L 307.60 906.20 L 304.70 904.70 L 302.00 902.90 L 299.60 900.80 L 297.50 898.40 L 295.70 895.70 L 294.20 892.80 L 293.20 889.70 L 292.50 886.50 L 292.30 883.10 L 292.30 148.20 L 292.50 144.80 L 293.20 141.60 L 294.20 138.50 L 295.70 135.60 L 297.50 132.90 L 299.60 130.50 L 302.00 128.40 L 304.70 126.60 L 307.60 125.10 L 310.70 124.10 L 313.90 123.40 L 317.30 123.20 Z" fill="#ffffff" fill-rule="nonzero" node-id="50" stroke="#000000" stroke-linecap="butt" stroke-width="14" target-height="784.89996" target-width="1138.8" target-x="292.3" target-y="123.2"></path><path d="M 304.80 801.70 L 1413.40 801.70 L 1417.70 802.50 L 1419.70 803.40 L 1422.90 806.10 L 1425.10 809.80 L 1425.90 814.20 L 1425.90 890.40 L 1425.70 892.70 L 1425.10 894.80 L 1422.90 898.50 L 1419.70 901.20 L 1415.60 902.70 L 1413.40 902.90 L 304.80 902.90 L 300.40 902.10 L 296.70 900.00 L 294.00 896.70 L 293.10 894.80 L 292.30 890.40 L 292.30 814.20 L 292.50 811.90 L 294.00 807.90 L 296.70 804.60 L 300.40 802.50 L 304.80 801.70 Z" fill="#315bf4" fill-rule="nonzero" node-id="52" stroke="none" target-height="101.20001" target-width="1133.6001" target-x="292.3" target-y="801.7"></path><path d="M 390.40 205.60 L 791.20 205.60 L 793.50 205.80 L 797.50 207.40 L 799.30 208.60 L 802.00 211.90 L 803.50 215.90 L 803.80 218.20 L 803.80 406.10 L 803.00 410.40 L 800.80 414.10 L 797.50 416.90 L 793.50 418.40 L 791.20 418.60 L 390.40 418.60 L 388.10 418.40 L 384.10 416.90 L 380.80 414.10 L 379.60 412.40 L 378.10 408.30 L 377.90 406.10 L 377.90 218.20 L 378.70 213.80 L 380.80 210.10 L 384.10 207.40 L 386.00 206.40 L 390.40 205.60 Z" fill="none" node-id="54" stroke="#d2e9fe" stroke-linecap="butt" stroke-width="10" target-height="213" target-width="425.9" target-x="377.9" target-y="205.6"></path><path d="M 437.40 267.20 L 439.80 267.00 L 442.10 266.40 L 446.10 264.00 L 449.10 260.50 L 450.10 258.40 L 450.70 256.10 L 450.90 253.70 L 450.70 251.20 L 450.10 248.90 L 449.10 246.80 L 447.70 244.90 L 444.20 241.90 L 442.10 240.90 L 439.80 240.30 L 437.40 240.10 L 434.90 240.30 L 432.60 240.90 L 428.60 243.30 L 425.60 246.80 L 424.60 248.90 L 424.00 251.20 L 423.80 253.70 L 424.00 256.10 L 424.60 258.40 L 427.00 262.40 L 430.50 265.40 L 432.60 266.40 L 434.90 267.00 L 437.40 267.20 Z" fill="#ff3f08" fill-rule="nonzero" node-id="56" stroke="none" target-height="27.100006" target-width="27.100006" target-x="423.8" target-y="240.1"></path><path d="M 482.30 267.20 L 484.70 267.00 L 487.00 266.40 L 491.00 264.00 L 494.00 260.50 L 495.00 258.40 L 495.60 256.10 L 495.80 253.70 L 495.60 251.20 L 495.00 248.90 L 492.60 244.90 L 489.10 241.90 L 487.00 240.90 L 484.70 240.30 L 482.30 240.10 L 479.80 240.30 L 477.50 240.90 L 473.50 243.30 L 470.50 246.80 L 469.50 248.90 L 468.90 251.20 L 468.70 253.70 L 468.90 256.10 L 469.50 258.40 L 470.50 260.50 L 473.50 264.00 L 477.50 266.40 L 479.80 267.00 L 482.30 267.20 Z" fill="#ff3f08" fill-rule="nonzero" node-id="58" stroke="none" target-height="27.100006" target-width="27.099976" target-x="468.7" target-y="240.1"></path><path d="M 527.10 267.20 L 529.60 267.00 L 531.90 266.40 L 534.00 265.40 L 535.90 264.00 L 538.90 260.50 L 539.90 258.40 L 540.50 256.10 L 540.70 253.70 L 540.50 251.20 L 539.90 248.90 L 538.90 246.80 L 537.50 244.90 L 534.00 241.90 L 531.90 240.90 L 529.60 240.30 L 527.10 240.10 L 524.70 240.30 L 522.40 240.90 L 518.40 243.30 L 515.40 246.80 L 514.40 248.90 L 513.80 251.20 L 513.60 253.70 L 513.80 256.10 L 514.40 258.40 L 515.40 260.50 L 518.40 264.00 L 522.40 266.40 L 524.70 267.00 L 527.10 267.20 Z" fill="#ff3f08" fill-rule="nonzero" node-id="60" stroke="none" target-height="27.100006" target-width="27.100037" target-x="513.6" target-y="240.1"></path><path d="M 432.10 299.60 L 732.80 299.60 L 735.00 299.90 L 737.00 300.70 L 738.70 302.00 L 740.00 303.70 L 740.80 305.70 L 741.10 307.90 L 740.80 310.20 L 740.00 312.10 L 738.70 313.80 L 737.00 315.10 L 735.00 316.00 L 732.80 316.30 L 432.10 316.30 L 429.90 316.00 L 427.90 315.10 L 426.20 313.80 L 424.90 312.10 L 424.10 310.20 L 423.80 307.90 L 424.10 305.70 L 424.90 303.70 L 426.20 302.00 L 427.90 300.70 L 429.90 299.90 L 432.10 299.60 Z" fill="#315bf4" fill-rule="nonzero" node-id="62" stroke="none" target-height="16.699982" target-width="317.3" target-x="423.8" target-y="299.6"></path><path d="M 432.10 350.70 L 553.20 350.70 L 555.50 351.00 L 557.40 351.90 L 559.10 353.20 L 560.40 354.90 L 561.30 356.80 L 561.60 359.10 L 561.30 361.30 L 560.40 363.30 L 559.10 365.00 L 557.40 366.30 L 555.50 367.10 L 553.20 367.40 L 432.10 367.40 L 429.90 367.10 L 427.90 366.30 L 426.20 365.00 L 424.90 363.30 L 424.10 361.30 L 423.80 359.10 L 424.10 356.80 L 424.90 354.90 L 426.20 353.20 L 427.90 351.90 L 429.90 351.00 L 432.10 350.70 Z" fill="#315bf4" fill-rule="nonzero" node-id="64" stroke="none" target-height="16.699982" target-width="137.79999" target-x="423.8" target-y="350.7"></path><path d="M 979.10 687.90 L 983.30 687.70 L 987.40 687.00 L 991.20 686.10 L 995.00 684.70 L 1001.90 680.90 L 1007.90 676.00 L 1012.90 669.90 L 1016.60 663.00 L 1019.00 655.40 L 1019.60 651.40 L 1019.80 647.20 L 1019.60 642.90 L 1019.00 638.90 L 1018.00 635.00 L 1014.90 627.70 L 1010.50 621.30 L 1005.00 615.80 L 998.50 611.40 L 991.20 608.30 L 987.40 607.30 L 983.30 606.70 L 979.10 606.50 L 974.90 606.70 L 967.00 608.30 L 959.70 611.40 L 953.20 615.80 L 947.70 621.30 L 945.40 624.40 L 941.60 631.30 L 940.20 635.00 L 939.20 638.90 L 938.60 642.90 L 938.40 647.20 L 938.60 651.40 L 939.20 655.40 L 941.60 663.00 L 945.40 669.90 L 950.30 676.00 L 956.30 680.90 L 963.30 684.70 L 967.00 686.10 L 970.90 687.00 L 974.90 687.70 L 979.10 687.90 Z" fill="#ff3f08" fill-rule="nonzero" node-id="66" stroke="none" target-height="81.400024" target-width="81.39996" target-x="938.4" target-y="606.5"></path><path d="M 1148.20 687.90 L 1152.40 687.70 L 1156.50 687.00 L 1160.30 686.10 L 1164.10 684.70 L 1171.00 680.90 L 1177.00 676.00 L 1182.00 669.90 L 1185.70 663.00 L 1187.10 659.30 L 1188.10 655.40 L 1188.70 651.40 L 1188.90 647.20 L 1188.70 642.90 L 1188.10 638.90 L 1185.70 631.30 L 1182.00 624.40 L 1177.00 618.40 L 1171.00 613.40 L 1164.10 609.70 L 1156.50 607.30 L 1148.20 606.50 L 1144.00 606.70 L 1140.00 607.30 L 1136.10 608.30 L 1132.40 609.70 L 1125.40 613.40 L 1119.40 618.40 L 1114.50 624.40 L 1110.70 631.30 L 1109.30 635.00 L 1108.30 638.90 L 1107.70 642.90 L 1107.50 647.20 L 1107.70 651.40 L 1108.30 655.40 L 1109.30 659.30 L 1110.70 663.00 L 1114.50 669.90 L 1119.40 676.00 L 1125.40 680.90 L 1132.40 684.70 L 1136.10 686.10 L 1140.00 687.00 L 1144.00 687.70 L 1148.20 687.90 Z" fill="#ff3f08" fill-rule="nonzero" node-id="68" stroke="none" target-height="81.400024" target-width="81.400024" target-x="1107.5" target-y="606.5"></path><path d="M 1253.60 622.10 L 1365.00 622.30 L 1368.00 623.40 L 1369.90 624.90 L 1371.40 626.80 L 1372.00 628.20 L 1372.60 631.50 L 1372.00 634.80 L 1369.90 638.20 L 1366.50 640.30 L 1363.30 640.90 L 1251.90 640.80 L 1248.90 639.60 L 1247.00 638.20 L 1244.80 634.80 L 1244.30 631.50 L 1244.80 628.20 L 1245.50 626.80 L 1247.00 624.90 L 1248.90 623.40 L 1250.40 622.70 L 1253.60 622.10 Z" fill="#315bf4" fill-rule="nonzero" node-id="70" stroke="none" target-height="18.800049" target-width="128.29993" target-x="1244.3" target-y="622.1"></path><path d="M 1310.00 670.10 L 1363.30 670.10 L 1366.50 670.70 L 1368.00 671.40 L 1369.90 672.90 L 1371.40 674.80 L 1372.50 677.80 L 1372.50 681.20 L 1371.40 684.30 L 1369.90 686.20 L 1366.50 688.30 L 1363.30 688.90 L 1310.00 688.90 L 1306.70 688.30 L 1305.30 687.60 L 1303.40 686.20 L 1301.90 684.30 L 1300.80 681.20 L 1300.80 677.80 L 1301.90 674.80 L 1303.40 672.90 L 1305.30 671.40 L 1306.70 670.70 L 1310.00 670.10 Z" fill="#315bf4" fill-rule="nonzero" node-id="72" stroke="none" target-height="18.800049" target-width="71.69995" target-x="1300.8" target-y="670.1"></path><path d="M 861.20 874.70 L 864.60 874.50 L 867.80 873.80 L 870.90 872.80 L 873.80 871.30 L 876.50 869.50 L 878.90 867.40 L 881.00 865.00 L 882.80 862.30 L 884.20 859.40 L 885.30 856.40 L 886.00 853.10 L 886.20 849.70 L 886.00 846.20 L 885.30 843.00 L 884.20 839.90 L 882.80 837.00 L 881.00 834.40 L 878.90 832.00 L 876.50 829.80 L 873.80 828.10 L 870.90 826.60 L 867.80 825.50 L 864.60 824.90 L 861.20 824.60 L 857.70 824.90 L 854.50 825.50 L 851.40 826.60 L 848.50 828.10 L 845.90 829.80 L 843.40 832.00 L 841.30 834.40 L 839.50 837.00 L 838.10 839.90 L 837.00 843.00 L 836.30 846.20 L 836.10 849.70 L 836.30 853.10 L 837.00 856.40 L 838.10 859.40 L 839.50 862.30 L 841.30 865.00 L 843.40 867.40 L 845.90 869.50 L 848.50 871.30 L 851.40 872.80 L 854.50 873.80 L 857.70 874.50 L 861.20 874.70 Z" fill="#ffffff" fill-rule="nonzero" node-id="74" stroke="none" target-height="50.100037" target-width="50.100037" target-x="836.1" target-y="824.6"></path><path d="M 916.10 508.30 L 913.70 508.10 L 911.50 507.50 L 907.60 505.20 L 904.70 501.80 L 903.70 499.70 L 903.10 497.50 L 902.90 495.10 L 902.90 20.50 L 903.10 18.10 L 903.70 15.90 L 906.00 12.00 L 909.50 9.10 L 911.50 8.10 L 913.70 7.50 L 916.10 7.30 L 1678.80 7.30 L 1681.20 7.50 L 1683.40 8.10 L 1685.50 9.10 L 1688.90 12.00 L 1691.20 15.90 L 1691.80 18.10 L 1692.10 20.50 L 1692.10 495.10 L 1691.80 497.50 L 1691.20 499.70 L 1690.20 501.80 L 1688.90 503.60 L 1685.50 506.50 L 1681.20 508.10 L 1678.80 508.30 L 916.10 508.30 Z" fill="#ffffff" fill-rule="nonzero" node-id="76" stroke="none" target-height="501" target-width="789.19995" target-x="902.9" target-y="7.3"></path><path d="M 1678.80 14.60 L 1680.40 14.80 L 1683.00 16.40 L 1684.50 18.90 L 1684.80 20.50 L 1684.80 495.10 L 1684.50 496.70 L 1683.00 499.30 L 1680.40 500.80 L 1678.80 501.00 L 916.10 501.00 L 914.60 500.80 L 912.00 499.30 L 910.50 496.70 L 910.20 495.10 L 910.20 20.50 L 911.00 17.60 L 913.20 15.40 L 916.10 14.60 L 1678.80 14.60 Z M 1678.80 0.00 L 916.10 0.00 L 912.40 0.40 L 909.00 1.30 L 905.80 2.80 L 902.90 4.90 L 900.50 7.30 L 898.40 10.20 L 896.90 13.40 L 896.00 16.80 L 895.60 20.50 L 895.60 495.10 L 896.00 498.90 L 896.90 502.30 L 898.40 505.50 L 900.50 508.30 L 902.90 510.80 L 905.80 512.80 L 909.00 514.40 L 912.40 515.30 L 916.10 515.70 L 1678.80 515.70 L 1682.60 515.30 L 1686.00 514.40 L 1689.20 512.80 L 1692.10 510.80 L 1694.50 508.30 L 1696.50 505.50 L 1698.10 502.30 L 1699.00 498.90 L 1699.40 495.10 L 1699.40 20.50 L 1699.00 16.80 L 1698.10 13.40 L 1696.50 10.20 L 1694.50 7.30 L 1692.10 4.90 L 1689.20 2.80 L 1686.00 1.30 L 1682.60 0.40 L 1678.80 0.00 Z" fill="#000000" fill-rule="nonzero" node-id="78" stroke="none" target-height="515.7" target-width="803.80005" target-x="895.6" target-y="0"></path><path d="M 942.60 53.20 L 945.10 53.00 L 947.30 52.40 L 951.30 50.00 L 954.30 46.50 L 955.30 44.40 L 955.90 42.10 L 956.20 39.70 L 955.90 37.20 L 955.30 34.90 L 952.90 30.90 L 949.40 27.90 L 947.30 26.90 L 945.10 26.30 L 942.60 26.10 L 940.10 26.30 L 937.80 26.90 L 933.80 29.30 L 930.90 32.80 L 929.90 34.90 L 929.20 37.20 L 929.00 39.70 L 929.20 42.10 L 929.90 44.40 L 932.20 48.40 L 935.70 51.40 L 937.80 52.40 L 940.10 53.00 L 942.60 53.20 Z" fill="#ff3f08" fill-rule="nonzero" node-id="80" stroke="none" target-height="27.1" target-width="27.200012" target-x="929" target-y="26.1"></path><path d="M 987.50 53.20 L 989.90 53.00 L 992.20 52.40 L 994.30 51.40 L 997.80 48.40 L 1000.20 44.40 L 1000.80 42.10 L 1001.00 39.70 L 1000.80 37.20 L 1000.20 34.90 L 997.80 30.90 L 994.30 27.90 L 992.20 26.90 L 989.90 26.30 L 987.50 26.10 L 985.00 26.30 L 982.70 26.90 L 978.70 29.30 L 975.70 32.80 L 974.70 34.90 L 974.10 37.20 L 973.90 39.70 L 974.10 42.10 L 974.70 44.40 L 977.10 48.40 L 980.60 51.40 L 982.70 52.40 L 985.00 53.00 L 987.50 53.20 Z" fill="#ff3f08" fill-rule="nonzero" node-id="82" stroke="none" target-height="27.1" target-width="27.099976" target-x="973.9" target-y="26.1"></path><path d="M 1032.40 53.20 L 1034.80 53.00 L 1037.10 52.40 L 1039.20 51.40 L 1042.70 48.40 L 1045.10 44.40 L 1045.70 42.10 L 1045.90 39.70 L 1045.70 37.20 L 1045.10 34.90 L 1042.70 30.90 L 1039.20 27.90 L 1037.10 26.90 L 1034.80 26.30 L 1032.40 26.10 L 1029.90 26.30 L 1027.60 26.90 L 1023.60 29.30 L 1020.60 32.80 L 1019.60 34.90 L 1019.00 37.20 L 1018.80 39.70 L 1019.00 42.10 L 1019.60 44.40 L 1022.00 48.40 L 1025.50 51.40 L 1027.60 52.40 L 1029.90 53.00 L 1032.40 53.20 Z" fill="#ff3f08" fill-rule="nonzero" node-id="84" stroke="none" target-height="27.1" target-width="27.100037" target-x="1018.8" target-y="26.1"></path><path d="M 1692.10 67.80 L 906.00 67.80 L 906.00 82.50 L 1692.10 82.50 L 1692.10 67.80 Z" fill="#ffffff" fill-rule="nonzero" node-id="86" stroke="none" target-height="14.699997" target-width="786.1" target-x="906" target-y="67.8"></path><path d="M 1692.10 67.80 L 906.00 67.80 L 906.00 82.50 L 1692.10 82.50 L 1692.10 67.80 Z" fill="#000000" fill-rule="nonzero" node-id="88" stroke="none" target-height="14.699997" target-width="786.1" target-x="906" target-y="67.8"></path><path d="M 1013.60 110.60 L 1016.80 111.20 L 1018.30 111.90 L 1020.20 113.40 L 1021.70 115.30 L 1022.40 116.80 L 1023.00 120.00 L 1023.00 438.40 L 1022.40 441.70 L 1021.70 443.10 L 1020.20 445.00 L 1018.30 446.50 L 1015.30 447.60 L 1013.60 447.80 L 1010.30 447.20 L 1008.80 446.50 L 1006.90 445.00 L 1005.50 443.10 L 1004.80 441.70 L 1004.20 438.40 L 1004.20 120.00 L 1004.80 116.80 L 1005.50 115.30 L 1006.90 113.40 L 1008.80 111.90 L 1010.30 111.20 L 1013.60 110.60 Z" fill="#d2e9fe" fill-rule="nonzero" node-id="90" stroke="none" target-height="337.19998" target-width="18.799988" target-x="1004.2" target-y="110.6"></path><path d="M 991.60 217.10 L 1033.40 217.10 L 1035.70 217.30 L 1037.80 217.90 L 1041.50 220.10 L 1044.20 223.30 L 1045.10 225.30 L 1045.90 229.60 L 1045.90 349.70 L 1045.10 354.10 L 1043.00 357.80 L 1039.70 360.50 L 1035.70 362.00 L 1033.40 362.20 L 991.60 362.20 L 989.40 362.00 L 987.30 361.40 L 983.60 359.20 L 980.80 356.00 L 979.90 354.10 L 979.10 349.70 L 979.10 229.60 L 979.90 225.30 L 982.10 221.60 L 985.30 218.80 L 987.30 217.90 L 991.60 217.10 Z" fill="#315bf4" fill-rule="nonzero" node-id="92" stroke="none" target-height="145.1" target-width="66.80005" target-x="979.1" target-y="217.1"></path><path d="M 1149.30 110.60 L 1152.50 111.20 L 1154.00 111.90 L 1155.90 113.40 L 1157.40 115.30 L 1158.10 116.80 L 1158.70 120.00 L 1158.70 438.40 L 1158.10 441.70 L 1157.40 443.10 L 1155.90 445.00 L 1154.00 446.50 L 1151.00 447.60 L 1149.30 447.80 L 1146.00 447.20 L 1144.50 446.50 L 1142.60 445.00 L 1141.20 443.10 L 1140.50 441.70 L 1139.90 438.40 L 1139.90 120.00 L 1140.50 116.80 L 1141.20 115.30 L 1142.60 113.40 L 1144.50 111.90 L 1146.00 111.20 L 1149.30 110.60 Z" fill="#d2e9fe" fill-rule="nonzero" node-id="94" stroke="none" target-height="337.19998" target-width="18.799927" target-x="1139.9" target-y="110.6"></path><path d="M 1127.30 154.50 L 1169.10 154.50 L 1171.40 154.70 L 1173.50 155.30 L 1177.20 157.50 L 1179.90 160.70 L 1180.80 162.60 L 1181.60 167.00 L 1181.60 287.10 L 1180.80 291.40 L 1178.70 295.10 L 1175.40 297.90 L 1173.50 298.80 L 1169.10 299.60 L 1127.30 299.60 L 1125.10 299.40 L 1123.00 298.80 L 1119.30 296.60 L 1116.50 293.40 L 1115.60 291.40 L 1114.80 287.10 L 1114.80 167.00 L 1115.60 162.60 L 1117.80 158.90 L 1121.00 156.20 L 1123.00 155.30 L 1127.30 154.50 Z" fill="#315bf4" fill-rule="nonzero" node-id="96" stroke="none" target-height="145.1" target-width="66.79993" target-x="1114.8" target-y="154.5"></path><path d="M 1292.30 110.60 L 1295.50 111.20 L 1297.00 111.90 L 1298.90 113.40 L 1300.40 115.30 L 1301.10 116.80 L 1301.70 120.00 L 1301.70 438.40 L 1301.10 441.70 L 1300.40 443.10 L 1298.90 445.00 L 1297.00 446.50 L 1295.50 447.20 L 1292.30 447.80 L 1289.00 447.20 L 1287.50 446.50 L 1285.60 445.00 L 1283.50 441.70 L 1282.90 438.40 L 1282.90 120.00 L 1283.50 116.80 L 1284.20 115.30 L 1285.60 113.40 L 1287.50 111.90 L 1289.00 111.20 L 1292.30 110.60 Z" fill="#d2e9fe" fill-rule="nonzero" node-id="98" stroke="none" target-height="337.19998" target-width="18.799927" target-x="1282.9" target-y="110.6"></path><path d="M 1270.30 221.30 L 1312.10 221.30 L 1314.40 221.50 L 1316.50 222.10 L 1320.20 224.30 L 1322.90 227.50 L 1323.80 229.50 L 1324.60 233.80 L 1324.60 353.90 L 1323.80 358.20 L 1321.70 361.90 L 1318.40 364.70 L 1314.40 366.20 L 1312.10 366.40 L 1270.30 366.40 L 1268.10 366.20 L 1266.00 365.60 L 1262.30 363.40 L 1259.50 360.20 L 1258.60 358.20 L 1257.80 353.90 L 1257.80 233.80 L 1258.60 229.50 L 1260.80 225.80 L 1264.00 223.00 L 1266.00 222.10 L 1270.30 221.30 Z" fill="#315bf4" fill-rule="nonzero" node-id="100" stroke="none" target-height="145.09999" target-width="66.79993" target-x="1257.8" target-y="221.3"></path><path d="M 1434.20 110.60 L 1437.50 111.20 L 1439.00 111.90 L 1440.90 113.40 L 1442.30 115.30 L 1443.00 116.80 L 1443.60 120.00 L 1443.60 438.40 L 1443.00 441.70 L 1442.30 443.10 L 1440.90 445.00 L 1439.00 446.50 L 1437.50 447.20 L 1434.20 447.80 L 1431.00 447.20 L 1429.50 446.50 L 1427.60 445.00 L 1426.10 443.10 L 1425.40 441.70 L 1424.80 438.40 L 1424.80 120.00 L 1425.40 116.80 L 1426.10 115.30 L 1427.60 113.40 L 1429.50 111.90 L 1431.00 111.20 L 1434.20 110.60 Z" fill="#d2e9fe" fill-rule="nonzero" node-id="102" stroke="none" target-height="337.19998" target-width="18.799927" target-x="1424.8" target-y="110.6"></path><path d="M 1412.30 262.00 L 1454.10 262.00 L 1456.30 262.20 L 1458.40 262.80 L 1462.10 265.00 L 1464.90 268.20 L 1465.80 270.20 L 1466.60 274.50 L 1466.60 394.60 L 1465.80 398.90 L 1463.60 402.60 L 1460.40 405.40 L 1456.30 406.90 L 1454.10 407.10 L 1412.30 407.10 L 1410.00 406.90 L 1407.90 406.30 L 1404.20 404.10 L 1401.50 400.90 L 1400.60 398.90 L 1399.80 394.60 L 1399.80 274.50 L 1400.60 270.20 L 1402.70 266.50 L 1406.00 263.70 L 1407.90 262.80 L 1412.30 262.00 Z" fill="#315bf4" fill-rule="nonzero" node-id="104" stroke="none" target-height="145.1" target-width="66.79993" target-x="1399.8" target-y="262"></path><path d="M 1575.10 110.60 L 1578.40 111.20 L 1579.90 111.90 L 1581.80 113.40 L 1583.30 115.30 L 1583.90 116.80 L 1584.50 120.00 L 1584.50 438.40 L 1583.90 441.70 L 1583.30 443.10 L 1581.80 445.00 L 1579.90 446.50 L 1576.80 447.60 L 1575.10 447.80 L 1571.90 447.20 L 1570.40 446.50 L 1568.50 445.00 L 1566.30 441.70 L 1565.80 438.40 L 1565.80 120.00 L 1566.30 116.80 L 1567.00 115.30 L 1568.50 113.40 L 1570.40 111.90 L 1571.90 111.20 L 1575.10 110.60 Z" fill="#d2e9fe" fill-rule="nonzero" node-id="106" stroke="none" target-height="337.19998" target-width="18.699951" target-x="1565.8" target-y="110.6"></path><path d="M 1553.20 188.90 L 1595.00 188.90 L 1597.30 189.10 L 1599.30 189.70 L 1603.00 191.90 L 1605.80 195.20 L 1606.70 197.10 L 1607.50 201.50 L 1607.50 321.50 L 1606.70 325.90 L 1604.50 329.60 L 1601.30 332.30 L 1597.30 333.80 L 1595.00 334.00 L 1553.20 334.00 L 1550.90 333.80 L 1548.90 333.20 L 1545.20 331.10 L 1542.40 327.80 L 1541.50 325.90 L 1540.70 321.50 L 1540.70 201.50 L 1541.50 197.10 L 1543.70 193.40 L 1546.90 190.70 L 1548.90 189.70 L 1553.20 188.90 Z" fill="#315bf4" fill-rule="nonzero" node-id="108" stroke="none" target-height="145.1" target-width="66.80005" target-x="1540.7" target-y="188.9"></path><path d="M 38.10 499.00 L 746.90 499.00 L 750.80 499.20 L 758.20 500.70 L 761.70 502.00 L 766.10 504.20 L 770.10 506.90 L 773.80 510.10 L 777.00 513.80 L 779.70 517.80 L 782.00 522.30 L 784.20 529.30 L 785.00 537.10 L 785.00 985.90 L 784.20 993.60 L 782.00 1000.70 L 779.70 1005.10 L 777.00 1009.10 L 773.80 1012.80 L 770.10 1016.00 L 766.10 1018.80 L 761.70 1021.00 L 754.60 1023.20 L 746.90 1024.00 L 38.10 1024.00 L 34.20 1023.80 L 26.80 1022.30 L 23.30 1021.00 L 18.90 1018.80 L 14.90 1016.00 L 11.20 1012.80 L 8.00 1009.10 L 5.20 1005.10 L 3.00 1000.70 L 0.80 993.60 L 0.00 985.90 L 0.00 537.10 L 0.80 529.30 L 3.00 522.30 L 5.20 517.80 L 8.00 513.80 L 11.20 510.10 L 14.90 506.90 L 18.90 504.20 L 23.30 502.00 L 30.40 499.70 L 38.10 499.00 Z" fill="#d2e9fe" fill-rule="nonzero" node-id="110" stroke="none" target-height="525" target-width="785" target-x="0" target-y="499"></path><path d="M 85.60 572.00 L 469.70 572.00 L 474.10 572.80 L 477.80 575.00 L 480.50 578.20 L 481.50 580.20 L 482.30 584.50 L 482.30 939.40 L 481.50 943.80 L 479.30 947.50 L 476.00 950.30 L 472.00 951.80 L 469.70 952.00 L 85.60 952.00 L 81.20 951.20 L 77.50 949.00 L 74.80 945.80 L 73.90 943.80 L 73.10 939.40 L 73.10 584.50 L 73.90 580.20 L 76.00 576.50 L 79.30 573.70 L 81.20 572.80 L 85.60 572.00 Z" fill="#ffffff" fill-rule="nonzero" node-id="112" stroke="none" target-height="380" target-width="409.19998" target-x="73.1" target-y="572"></path><path d="M 374.70 719.20 L 379.80 718.90 L 384.70 718.20 L 389.40 717.00 L 393.80 715.30 L 398.20 713.30 L 402.20 710.80 L 405.90 708.00 L 409.40 704.80 L 412.60 701.30 L 415.40 697.60 L 417.90 693.60 L 419.90 689.20 L 421.60 684.80 L 422.80 680.10 L 423.50 675.20 L 423.80 670.10 L 423.50 665.00 L 422.80 660.20 L 421.60 655.50 L 419.90 651.00 L 417.90 646.70 L 415.40 642.70 L 412.60 638.90 L 409.40 635.40 L 405.90 632.30 L 402.20 629.50 L 398.20 627.00 L 393.80 624.90 L 389.40 623.30 L 384.70 622.10 L 379.80 621.40 L 374.70 621.10 L 369.60 621.40 L 364.80 622.10 L 360.10 623.30 L 355.60 624.90 L 351.30 627.00 L 347.30 629.50 L 343.50 632.30 L 340.00 635.40 L 336.90 638.90 L 334.10 642.70 L 331.60 646.70 L 329.50 651.00 L 327.90 655.50 L 326.70 660.20 L 325.90 665.00 L 325.70 670.10 L 325.90 675.20 L 326.70 680.10 L 327.90 684.80 L 329.50 689.20 L 331.60 693.60 L 334.10 697.60 L 336.90 701.30 L 340.00 704.80 L 343.50 708.00 L 347.30 710.80 L 351.30 713.30 L 355.60 715.30 L 360.10 717.00 L 364.80 718.20 L 369.60 718.90 L 374.70 719.20 Z" fill="#ff3f08" fill-rule="nonzero" node-id="114" stroke="none" target-height="98.10004" target-width="98.099976" target-x="325.7" target-y="621.1"></path><path d="M 73.10 878.90 L 206.70 778.70 L 277.70 851.80 L 407.10 747.40 L 483.30 810.00 L 482.30 952.00 L 73.10 952.00 L 73.10 878.90 Z" fill="#398cff" fill-rule="nonzero" node-id="116" stroke="none" target-height="204.59998" target-width="410.19998" target-x="73.1" target-y="747.4"></path><path d="M 540.70 596.00 L 711.90 596.00 L 714.40 596.30 L 716.60 596.90 L 718.70 597.90 L 722.30 600.90 L 724.60 604.90 L 725.20 607.10 L 725.50 609.60 L 725.20 612.10 L 724.60 614.30 L 722.30 618.30 L 718.70 621.30 L 716.60 622.30 L 714.40 622.90 L 711.90 623.20 L 540.70 623.20 L 538.20 622.90 L 536.00 622.30 L 533.90 621.30 L 530.30 618.30 L 528.00 614.30 L 527.40 612.10 L 527.10 609.60 L 527.40 607.10 L 528.00 604.90 L 530.30 600.90 L 533.90 597.90 L 536.00 596.90 L 538.20 596.30 L 540.70 596.00 Z" fill="#ffffff" fill-rule="nonzero" node-id="118" stroke="none" target-height="27.200012" target-width="198.40002" target-x="527.1" target-y="596"></path><path d="M 540.70 647.20 L 684.80 647.20 L 687.20 647.40 L 689.50 648.00 L 691.60 649.00 L 695.10 652.00 L 697.50 656.00 L 698.10 658.30 L 698.30 660.70 L 698.10 663.20 L 697.50 665.50 L 696.50 667.60 L 695.10 669.50 L 691.60 672.50 L 689.50 673.50 L 687.20 674.10 L 684.80 674.30 L 540.70 674.30 L 538.20 674.10 L 536.00 673.50 L 533.90 672.50 L 530.30 669.50 L 528.00 665.50 L 527.40 663.20 L 527.10 660.70 L 527.40 658.30 L 528.00 656.00 L 530.30 652.00 L 533.90 649.00 L 536.00 648.00 L 538.20 647.40 L 540.70 647.20 Z" fill="#315bf4" fill-rule="nonzero" node-id="120" stroke="none" target-height="27.099976" target-width="171.20001" target-x="527.1" target-y="647.2"></path><path d="M 547.50 802.70 L 707.20 802.70 L 711.00 803.00 L 714.50 803.70 L 717.90 804.90 L 721.10 806.50 L 724.10 808.50 L 726.70 810.80 L 729.10 813.50 L 731.10 816.40 L 732.70 819.60 L 733.90 823.00 L 734.60 826.60 L 734.90 830.40 L 734.60 834.20 L 733.90 837.70 L 732.70 841.10 L 731.10 844.30 L 729.10 847.20 L 726.70 849.90 L 724.10 852.30 L 721.10 854.20 L 717.90 855.80 L 714.50 857.00 L 711.00 857.80 L 707.20 858.00 L 547.50 858.00 L 543.70 857.80 L 540.10 857.00 L 536.70 855.80 L 533.50 854.20 L 530.60 852.30 L 528.00 849.90 L 525.60 847.20 L 523.60 844.30 L 522.00 841.10 L 520.80 837.70 L 520.10 834.20 L 519.80 830.40 L 520.10 826.60 L 520.80 823.00 L 522.00 819.60 L 523.60 816.40 L 525.60 813.50 L 528.00 810.80 L 530.60 808.50 L 533.50 806.50 L 536.70 804.90 L 540.10 803.70 L 543.70 803.00 L 547.50 802.70 Z" fill="#ffffff" fill-rule="nonzero" node-id="122" stroke="none" target-height="55.299988" target-width="215.10004" target-x="519.8" target-y="802.7"></path><path d="M 540.70 699.40 L 658.70 699.40 L 661.10 699.60 L 663.40 700.20 L 665.50 701.20 L 669.00 704.20 L 671.40 708.20 L 672.00 710.50 L 672.20 712.90 L 672.00 715.40 L 671.40 717.70 L 669.00 721.70 L 665.50 724.60 L 663.40 725.70 L 661.10 726.30 L 658.70 726.50 L 540.70 726.50 L 538.20 726.30 L 536.00 725.70 L 533.90 724.60 L 530.30 721.70 L 529.00 719.80 L 528.00 717.70 L 527.40 715.40 L 527.10 712.90 L 527.40 710.50 L 528.00 708.20 L 530.30 704.20 L 533.90 701.20 L 536.00 700.20 L 538.20 699.60 L 540.70 699.40 Z" fill="#ffffff" fill-rule="nonzero" node-id="124" stroke="none" target-height="27.099976" target-width="145.10004" target-x="527.1" target-y="699.4"></path><path d="M 540.70 750.50 L 613.80 750.50 L 616.20 750.70 L 618.50 751.40 L 622.50 753.70 L 625.50 757.30 L 626.50 759.40 L 627.10 761.60 L 627.30 764.10 L 627.10 766.60 L 626.50 768.80 L 625.50 770.90 L 622.50 774.40 L 618.50 776.80 L 616.20 777.40 L 613.80 777.70 L 540.70 777.70 L 538.20 777.40 L 536.00 776.80 L 533.90 775.80 L 532.00 774.40 L 529.00 770.90 L 528.00 768.80 L 527.40 766.60 L 527.10 764.10 L 527.40 761.60 L 528.00 759.40 L 529.00 757.20 L 532.00 753.70 L 533.90 752.40 L 536.00 751.40 L 538.20 750.70 L 540.70 750.50 Z" fill="#315bf4" fill-rule="nonzero" node-id="126" stroke="none" target-height="27.200012" target-width="100.20001" target-x="527.1" target-y="750.5"></path><path d="M 650.30 945.70 L 654.30 945.00 L 656.10 944.10 L 659.10 941.60 L 661.10 938.20 L 661.80 934.20 L 661.10 930.20 L 659.10 926.80 L 656.10 924.30 L 654.30 923.50 L 650.30 922.70 L 646.30 923.50 L 642.90 925.50 L 640.40 928.40 L 639.50 930.20 L 638.80 934.20 L 639.50 938.20 L 640.40 940.00 L 642.90 943.00 L 646.30 945.00 L 650.30 945.70 Z" fill="#ff3f08" fill-rule="nonzero" node-id="128" stroke="none" target-height="23" target-width="23" target-x="638.8" target-y="922.7"></path><path d="M 698.30 945.70 L 702.30 945.00 L 705.70 943.00 L 708.20 940.00 L 709.10 938.20 L 709.80 934.20 L 709.10 930.20 L 708.20 928.40 L 705.70 925.50 L 702.30 923.50 L 698.30 922.70 L 694.30 923.50 L 690.90 925.50 L 688.40 928.40 L 687.60 930.20 L 686.80 934.20 L 687.60 938.20 L 689.60 941.60 L 692.50 944.10 L 694.30 945.00 L 698.30 945.70 Z" fill="#ff3f08" fill-rule="nonzero" node-id="130" stroke="none" target-height="23" target-width="23" target-x="686.8" target-y="922.7"></path><path d="M 1624.20 973.90 L 1632.10 973.60 L 1639.70 972.60 L 1647.10 971.10 L 1654.20 969.10 L 1661.20 966.40 L 1667.90 963.30 L 1674.20 959.70 L 1680.30 955.60 L 1686.00 951.00 L 1691.40 946.10 L 1696.30 940.70 L 1700.90 935.00 L 1705.00 928.90 L 1708.60 922.60 L 1711.70 915.90 L 1714.30 908.90 L 1716.40 901.80 L 1717.90 894.40 L 1718.90 886.80 L 1719.20 878.90 L 1718.90 871.00 L 1717.90 863.40 L 1716.40 856.00 L 1714.30 848.90 L 1711.70 841.90 L 1708.60 835.20 L 1705.00 828.90 L 1700.90 822.80 L 1696.30 817.10 L 1691.40 811.70 L 1686.00 806.80 L 1680.30 802.20 L 1674.20 798.10 L 1667.90 794.50 L 1661.20 791.40 L 1654.20 788.80 L 1647.10 786.70 L 1639.70 785.20 L 1632.10 784.30 L 1624.20 783.90 L 1616.30 784.30 L 1608.70 785.20 L 1601.30 786.70 L 1594.20 788.80 L 1587.20 791.40 L 1580.50 794.50 L 1574.20 798.10 L 1568.10 802.20 L 1562.40 806.80 L 1557.00 811.70 L 1552.10 817.10 L 1547.50 822.80 L 1543.40 828.90 L 1539.80 835.20 L 1536.70 841.90 L 1534.10 848.90 L 1532.00 856.00 L 1530.50 863.40 L 1529.60 871.00 L 1529.20 878.90 L 1529.60 886.80 L 1530.50 894.40 L 1532.00 901.80 L 1534.10 908.90 L 1536.70 915.90 L 1539.80 922.60 L 1543.40 928.90 L 1547.50 935.00 L 1552.10 940.70 L 1557.00 946.10 L 1562.40 951.00 L 1568.10 955.60 L 1574.20 959.70 L 1580.50 963.30 L 1587.20 966.40 L 1594.20 969.10 L 1601.30 971.10 L 1608.70 972.60 L 1616.30 973.60 L 1624.20 973.90 Z" fill="#d2e9fe" fill-rule="nonzero" node-id="132" stroke="none" target-height="190" target-width="190" target-x="1529.2" target-y="783.9"></path><path d="M 1633.60 827.80 L 1616.90 827.80 L 1616.90 947.80 L 1633.60 947.80 L 1633.60 827.80 Z" fill="#398cff" fill-rule="nonzero" node-id="134" stroke="none" target-height="120" target-width="16.699951" target-x="1616.9" target-y="827.8"></path><path d="M 1569.90 884.10 L 1624.20 822.50" fill="none" node-id="136" stroke="#398cff" stroke-linecap="round" stroke-width="14" target-height="61.599976" target-width="54.299927" target-x="1569.9" target-y="822.5"></path><path d="M 1679.50 883.10 L 1625.30 821.50" fill="none" node-id="138" stroke="#398cff" stroke-linecap="round" stroke-width="14" target-height="61.599976" target-width="54.19995" target-x="1625.3" target-y="821.5"></path></svg>